<svg width="185" height="57" viewBox="0 0 185 57" fill="none" xmlns="http://www.w3.org/2000/svg">
<path d="M1.024 8.48H6.208V12.416C7.18933 9.62133 9.01333 8.224 11.68 8.224C13.7067 8.224 15.328 8.928 16.544 10.336C17.7813 11.744 18.4 13.728 18.4 16.288C18.4 18.8267 17.7813 20.8107 16.544 22.24C15.328 23.648 13.7173 24.352 11.712 24.352C9.13067 24.352 7.36 23.0827 6.4 20.544V32.192L8.736 32.896V34.08H0.96V32.896L3.36 32.192V10.016L1.024 9.6V8.48ZM11.232 9.632C9.84533 9.632 8.69333 10.2187 7.776 11.392C6.88 12.5653 6.432 14.1547 6.432 16.16C6.432 18.144 6.86933 19.776 7.744 21.056C8.61867 22.3147 9.78133 22.944 11.232 22.944C13.8347 22.944 15.136 20.7253 15.136 16.288C15.136 11.8507 13.8347 9.632 11.232 9.632ZM35.5498 18.592V22.24C34.3338 23.6267 32.3711 24.32 29.6618 24.32C26.9738 24.32 24.9791 23.616 23.6778 22.208C22.3764 20.7787 21.7258 18.8053 21.7258 16.288C21.7258 13.7707 22.4084 11.7973 23.7738 10.368C25.1604 8.91733 27.0164 8.192 29.3418 8.192C30.7284 8.192 31.8804 8.448 32.7978 8.96C33.7364 9.472 34.4084 10.1547 34.8138 11.008C35.4538 12.416 35.7738 13.8987 35.7738 15.456H24.9258C24.9258 17.8667 25.2031 19.7013 25.7578 20.96C26.3978 22.3893 27.6564 23.104 29.5338 23.104C30.1951 23.104 30.8244 23.0187 31.4218 22.848C32.0404 22.656 32.4884 22.4747 32.7658 22.304C33.0431 22.1333 33.1818 22.0267 33.1818 21.984L34.3658 18.592H35.5498ZM29.2778 9.44C27.4644 9.44 26.2271 10.272 25.5658 11.936C25.2458 12.6827 25.0538 13.504 24.9898 14.4H32.9898C32.9898 11.0933 31.7524 9.44 29.2778 9.44ZM39.6388 8.48H44.9508V13.024C45.3774 11.744 46.0388 10.6773 46.9348 9.824C47.8308 8.94933 48.9188 8.512 50.1988 8.512C50.9881 8.512 51.9374 8.8 53.0468 9.376V13.216H51.7988L50.8068 10.592C50.4014 10.3787 49.9428 10.272 49.4308 10.272C48.4921 10.272 47.5428 10.8267 46.5828 11.936C45.6441 13.024 45.1748 14.1973 45.1748 15.456V22.144L47.5428 22.816V24H39.7028V22.816L42.1348 22.144V10.08L39.6388 9.632V8.48ZM66.5 4.8H65.156L64.42 2.048C63.9933 1.81333 63.5987 1.696 63.236 1.696C62.5107 1.696 61.956 2.05867 61.572 2.784C61.188 3.50933 60.996 4.448 60.996 5.6C60.996 6.752 61.22 7.70133 61.668 8.448H65.508V9.76H61.732V22.112L64.164 22.816V24H56.484V22.816L58.692 22.112V9.76H55.78V8.448H58.692C58.692 5.504 59.0333 3.392 59.716 2.112C60.3987 0.810665 61.572 0.159998 63.236 0.159998C64.0893 0.159998 65.1773 0.341331 66.5 0.703999V4.8ZM67.844 8.48H73.156V18.048C73.156 19.7333 73.3693 20.928 73.796 21.632C74.244 22.336 74.9693 22.688 75.972 22.688C77.4653 22.688 78.6387 21.984 79.492 20.576C80.3453 19.168 80.772 17.0133 80.772 14.112V10.08L78.436 9.664V8.48H83.748V22.08L86.276 22.816V24H80.964V19.68C80.4093 21.1947 79.6307 22.3573 78.628 23.168C77.6467 23.9573 76.5693 24.352 75.396 24.352C71.8973 24.352 70.148 22.432 70.148 18.592V10.08L67.844 9.664V8.48ZM88.6685 8.48H93.8525V12.64C94.8125 9.696 96.7432 8.224 99.6445 8.224C100.967 8.224 102.023 8.53333 102.812 9.152C103.602 9.77067 104.157 10.8053 104.477 12.256C105.437 9.568 107.25 8.224 109.917 8.224C111.474 8.224 112.69 8.68267 113.565 9.6C114.461 10.496 114.909 11.8187 114.909 13.568V22.176L117.597 22.816V24H109.597V22.816L111.901 22.112V14.368C111.901 12.6187 111.666 11.424 111.197 10.784C110.727 10.1227 110.023 9.792 109.085 9.792C106.055 9.792 104.541 12.5867 104.541 18.176V22.144L107.261 22.816V24H99.1325V22.816L101.501 22.144V14.88C101.501 13.024 101.298 11.712 100.893 10.944C100.487 10.1547 99.8045 9.76 98.8445 9.76C97.8845 9.76 97.0952 10.0053 96.4765 10.496C95.8578 10.9653 95.3885 11.6053 95.0685 12.416C94.4498 13.9093 94.1405 15.712 94.1405 17.824V22.112L96.6365 22.816V24H88.5725V22.816L91.1005 22.144V10.048L88.6685 9.632V8.48ZM134.581 18.592V22.24C133.365 23.6267 131.402 24.32 128.693 24.32C126.005 24.32 124.01 23.616 122.709 22.208C121.408 20.7787 120.757 18.8053 120.757 16.288C120.757 13.7707 121.44 11.7973 122.805 10.368C124.192 8.91733 126.048 8.192 128.373 8.192C129.76 8.192 130.912 8.448 131.829 8.96C132.768 9.472 133.44 10.1547 133.845 11.008C134.485 12.416 134.805 13.8987 134.805 15.456H123.957C123.957 17.8667 124.234 19.7013 124.789 20.96C125.429 22.3893 126.688 23.104 128.565 23.104C129.226 23.104 129.856 23.0187 130.453 22.848C131.072 22.656 131.52 22.4747 131.797 22.304C132.074 22.1333 132.213 22.0267 132.213 21.984L133.397 18.592H134.581ZM128.309 9.44C126.496 9.44 125.258 10.272 124.597 11.936C124.277 12.6827 124.085 13.504 124.021 14.4H132.021C132.021 11.0933 130.784 9.44 128.309 9.44ZM19.856 30.48H25.04V34.64C26 31.696 27.9307 30.224 30.832 30.224C32.1547 30.224 33.2107 30.5333 34 31.152C34.7893 31.7707 35.344 32.8053 35.664 34.256C36.624 31.568 38.4373 30.224 41.104 30.224C42.6613 30.224 43.8773 30.6827 44.752 31.6C45.648 32.496 46.096 33.8187 46.096 35.568V44.176L48.784 44.816V46H40.784V44.816L43.088 44.112V36.368C43.088 34.6187 42.8533 33.424 42.384 32.784C41.9147 32.1227 41.2107 31.792 40.272 31.792C37.2427 31.792 35.728 34.5867 35.728 40.176V44.144L38.448 44.816V46H30.32V44.816L32.688 44.144V36.88C32.688 35.024 32.4853 33.712 32.08 32.944C31.6747 32.1547 30.992 31.76 30.032 31.76C29.072 31.76 28.2827 32.0053 27.664 32.496C27.0453 32.9653 26.576 33.6053 26.256 34.416C25.6373 35.9093 25.328 37.712 25.328 39.824V44.112L27.824 44.816V46H19.76V44.816L22.288 44.144V32.048L19.856 31.632V30.48ZM65.7685 40.592V44.24C64.5525 45.6267 62.5898 46.32 59.8805 46.32C57.1925 46.32 55.1978 45.616 53.8965 44.208C52.5952 42.7787 51.9445 40.8053 51.9445 38.288C51.9445 35.7707 52.6272 33.7973 53.9925 32.368C55.3792 30.9173 57.2352 30.192 59.5605 30.192C60.9472 30.192 62.0992 30.448 63.0165 30.96C63.9552 31.472 64.6272 32.1547 65.0325 33.008C65.6725 34.416 65.9925 35.8987 65.9925 37.456H55.1445C55.1445 39.8667 55.4218 41.7013 55.9765 42.96C56.6165 44.3893 57.8752 45.104 59.7525 45.104C60.4138 45.104 61.0432 45.0187 61.6405 44.848C62.2592 44.656 62.7072 44.4747 62.9845 44.304C63.2618 44.1333 63.4005 44.0267 63.4005 43.984L64.5845 40.592H65.7685ZM59.4965 31.44C57.6832 31.44 56.4458 32.272 55.7845 33.936C55.4645 34.6827 55.2725 35.504 55.2085 36.4H63.2085C63.2085 33.0933 61.9712 31.44 59.4965 31.44ZM70.0815 30.448H75.2655V34.96C76.1188 31.8027 78.0175 30.224 80.9615 30.224C82.6895 30.224 83.9695 30.7573 84.8015 31.824C85.6335 32.8693 86.0495 34.32 86.0495 36.176V44.112L88.5135 44.816V46H80.9295V44.816L83.0735 44.176V36.56C83.0735 34.832 82.8388 33.5947 82.3695 32.848C81.9215 32.1013 81.2068 31.728 80.2255 31.728C78.7108 31.728 77.5375 32.4533 76.7055 33.904C75.8948 35.3333 75.4895 37.488 75.4895 40.368V44.176L77.7295 44.816V46H70.0815V44.816L72.4495 44.144V32.048L70.0815 31.6V30.448ZM107.313 46H101.681V42.768C100.678 45.1147 98.9181 46.288 96.4008 46.288C94.7154 46.288 93.4354 45.9253 92.5608 45.2C91.6861 44.4533 91.2488 43.4187 91.2488 42.096C91.2488 40.2187 92.0701 38.8747 93.7128 38.064C95.3768 37.232 98.0114 36.784 101.617 36.72V35.344C101.617 33.8293 101.307 32.8053 100.689 32.272C100.07 31.7173 99.1528 31.44 97.9368 31.44C96.7208 31.44 95.6648 31.7173 94.7688 32.272L93.7128 35.44H92.5288V31.824C93.0621 31.376 93.7981 31.0027 94.7368 30.704C95.6754 30.384 96.6994 30.224 97.8088 30.224C100.07 30.224 101.766 30.6613 102.897 31.536C104.049 32.3893 104.625 33.9147 104.625 36.112V44.08L107.313 44.816V46ZM97.2328 44.944C98.5981 44.944 99.6648 44.4213 100.433 43.376C101.222 42.3093 101.617 40.464 101.617 37.84C97.9474 37.84 95.7074 38.4053 94.8968 39.536C94.5128 40.0693 94.3208 40.8587 94.3208 41.904C94.3208 42.9493 94.5448 43.7173 94.9928 44.208C95.4621 44.6987 96.2088 44.944 97.2328 44.944ZM113.01 47.824C111.986 48.848 111.474 49.968 111.474 51.184C111.474 52.4 111.954 53.4027 112.914 54.192C113.895 55.0027 115.271 55.408 117.042 55.408C118.834 55.408 120.306 55.0133 121.458 54.224C122.631 53.456 123.218 52.4427 123.218 51.184C123.218 49.6907 122.194 48.8587 120.146 48.688L115.602 48.336C114.471 48.2507 113.607 48.08 113.01 47.824ZM116.978 31.408C114.631 31.408 113.458 32.9973 113.458 36.176C113.458 37.8187 113.746 39.024 114.322 39.792C114.898 40.56 115.794 40.944 117.01 40.944C119.42 40.944 120.626 39.3867 120.626 36.272C120.626 34.544 120.338 33.3067 119.762 32.56C119.186 31.792 118.258 31.408 116.978 31.408ZM125.522 30.544V31.664L122.642 32.784C123.282 33.7227 123.602 34.864 123.602 36.208C123.602 38.0213 122.972 39.4613 121.714 40.528C120.455 41.5947 118.855 42.128 116.914 42.128C116.295 42.128 115.58 42.0427 114.77 41.872C113.724 42.448 113.202 43.0667 113.202 43.728C113.202 44.368 113.383 44.816 113.746 45.072C114.13 45.328 114.994 45.52 116.338 45.648L119.506 45.904C121.468 45.9467 122.876 46.3307 123.73 47.056C124.583 47.7813 125.01 48.8693 125.01 50.32C125.01 52.2827 124.242 53.808 122.706 54.896C121.17 55.984 119.218 56.528 116.85 56.528C114.482 56.528 112.647 56.0907 111.346 55.216C110.044 54.3413 109.394 53.0933 109.394 51.472C109.394 49.872 110.364 48.5493 112.306 47.504C111.452 46.7787 111.026 45.968 111.026 45.072C111.026 44.176 111.228 43.4933 111.634 43.024C112.039 42.5547 112.775 42.0747 113.842 41.584C111.623 40.4533 110.514 38.6507 110.514 36.176C110.514 34.3413 111.1 32.88 112.274 31.792C113.447 30.6827 115.026 30.128 117.01 30.128C117.97 30.128 118.994 30.2667 120.082 30.544H125.522ZM140.8 40.592V44.24C139.584 45.6267 137.621 46.32 134.912 46.32C132.224 46.32 130.229 45.616 128.928 44.208C127.626 42.7787 126.976 40.8053 126.976 38.288C126.976 35.7707 127.658 33.7973 129.024 32.368C130.41 30.9173 132.266 30.192 134.592 30.192C135.978 30.192 137.13 30.448 138.048 30.96C138.986 31.472 139.658 32.1547 140.064 33.008C140.704 34.416 141.024 35.8987 141.024 37.456H130.176C130.176 39.8667 130.453 41.7013 131.008 42.96C131.648 44.3893 132.906 45.104 134.784 45.104C135.445 45.104 136.074 45.0187 136.672 44.848C137.29 44.656 137.738 44.4747 138.016 44.304C138.293 44.1333 138.432 44.0267 138.432 43.984L139.616 40.592H140.8ZM134.528 31.44C132.714 31.44 131.477 32.272 130.816 33.936C130.496 34.6827 130.304 35.504 130.24 36.4H138.24C138.24 33.0933 137.002 31.44 134.528 31.44ZM144.889 30.48H150.201V35.024C150.627 33.744 151.289 32.6773 152.185 31.824C153.081 30.9493 154.169 30.512 155.449 30.512C156.238 30.512 157.187 30.8 158.297 31.376V35.216H157.049L156.057 32.592C155.651 32.3787 155.193 32.272 154.681 32.272C153.742 32.272 152.793 32.8267 151.833 33.936C150.894 35.024 150.425 36.1973 150.425 37.456V44.144L152.793 44.816V46H144.953V44.816L147.385 44.144V32.08L144.889 31.632V30.48ZM160.069 30.48H165.253V44.176L167.493 44.816V46H159.909V44.816L162.245 44.112V32.016L160.069 31.632V30.48ZM161.125 23.664C161.125 23.088 161.306 22.64 161.669 22.32C162.053 21.9787 162.554 21.808 163.173 21.808C163.813 21.808 164.325 21.9787 164.709 22.32C165.093 22.64 165.285 23.088 165.285 23.664C165.285 24.2187 165.103 24.6667 164.741 25.008C164.378 25.3493 163.866 25.52 163.205 25.52C162.565 25.52 162.053 25.36 161.669 25.04C161.306 24.6987 161.125 24.24 161.125 23.664ZM184.237 40.592V44.24C183.021 45.6267 181.059 46.32 178.349 46.32C175.661 46.32 173.667 45.616 172.365 44.208C171.064 42.7787 170.413 40.8053 170.413 38.288C170.413 35.7707 171.096 33.7973 172.461 32.368C173.848 30.9173 175.704 30.192 178.029 30.192C179.416 30.192 180.568 30.448 181.485 30.96C182.424 31.472 183.096 32.1547 183.501 33.008C184.141 34.416 184.461 35.8987 184.461 37.456H173.613C173.613 39.8667 173.891 41.7013 174.445 42.96C175.085 44.3893 176.344 45.104 178.221 45.104C178.883 45.104 179.512 45.0187 180.109 44.848C180.728 44.656 181.176 44.4747 181.453 44.304C181.731 44.1333 181.869 44.0267 181.869 43.984L183.053 40.592H184.237ZM177.965 31.44C176.152 31.44 174.915 32.272 174.253 33.936C173.933 34.6827 173.741 35.504 173.677 36.4H181.677C181.677 33.0933 180.44 31.44 177.965 31.44Z" fill="black"/>
</svg>
