<svg width="42" height="38" viewBox="0 0 42 38" fill="none" xmlns="http://www.w3.org/2000/svg">
<path d="M30.0964 8.47372C29.8239 8.00148 29.4336 7.60794 28.9636 7.33149C28.4936 7.05504 27.9601 6.90512 27.4149 6.89634H7.2244L6.30952 3.33146C6.21709 2.98733 6.01086 2.68464 5.72444 2.47269C5.43801 2.26073 5.08826 2.152 4.73214 2.16419H1.57738C1.15903 2.16419 0.75782 2.33038 0.462004 2.6262C0.166188 2.92201 0 3.32323 0 3.74158C0 4.15992 0.166188 4.56114 0.462004 4.85695C0.75782 5.15277 1.15903 5.31896 1.57738 5.31896H3.53333L7.8869 21.5029C7.97934 21.847 8.18556 22.1497 8.47199 22.3617C8.75842 22.5736 9.10817 22.6823 9.46428 22.6701H23.6607C23.952 22.6693 24.2374 22.5877 24.4852 22.4346C24.733 22.2815 24.9335 22.0627 25.0646 21.8026L30.2384 11.455C30.4626 10.9849 30.567 10.4667 30.5423 9.94649C30.5175 9.42629 30.3643 8.92032 30.0964 8.47372ZM22.6827 19.5154H10.6631L8.09196 10.0511H27.4149L22.6827 19.5154Z" fill="#231F20"/>
<path d="M8.67564 30.5571C9.98239 30.5571 11.0417 29.4977 11.0417 28.191C11.0417 26.8842 9.98239 25.8249 8.67564 25.8249C7.3689 25.8249 6.30957 26.8842 6.30957 28.191C6.30957 29.4977 7.3689 30.5571 8.67564 30.5571Z" fill="#231F20"/>
<path d="M24.4494 30.5571C25.7562 30.5571 26.8155 29.4977 26.8155 28.191C26.8155 26.8842 25.7562 25.8249 24.4494 25.8249C23.1427 25.8249 22.0834 26.8842 22.0834 28.191C22.0834 29.4977 23.1427 30.5571 24.4494 30.5571Z" fill="#231F20"/>
</svg>
